<?xml version="1.0" encoding="utf-8"?>
<!-- Generator: Adobe Illustrator 16.0.0, SVG Export Plug-In . SVG Version: 6.00 Build 0)  -->
<!DOCTYPE svg PUBLIC "-//W3C//DTD SVG 1.1//EN" "http://www.w3.org/Graphics/SVG/1.1/DTD/svg11.dtd">
<svg version="1.1" id="Layer_1" xmlns="http://www.w3.org/2000/svg" xmlns:xlink="http://www.w3.org/1999/xlink" x="0px" y="0px"
	 width="100px" height="100px" viewBox="0 0 100 100" enable-background="new 0 0 100 100" xml:space="preserve">
<g display="none">
	<path display="inline" fill="#FFAD97" d="M46.498,45.026c-0.622-0.128-1.276-0.161-1.276-0.161s0.083-0.094,0.179-0.55
		c0.094-0.446,0.011-0.769-0.179-0.409c-0.192,0.361-0.445,0.91-1.401,1.357c-0.941,0.439-3.744-1.19-3.744-1.19l-0.167,0.242
		c-0.253,2.042,1.318,1.901,1.318,1.901s1.461,0.388,2.422,0.347c1.087-0.045,1.981-0.141,2.612-0.295
		C47.667,45.925,47.12,45.154,46.498,45.026z"/>
	<g display="inline">
		<path fill="#4D4D4D" d="M54.154,63.985c0,0-0.473,0.516-1.105,1.131c-0.586,0.568-0.765,0.734-1.309,1.262
			c-0.314,0.311-0.056,0.594,0.549,0.57c0.53-0.021,1.731-0.277,2.404-0.521c0.478-0.17,1.354-0.654,1.8-0.938
			c0.449-0.283,0.536-0.676,0.536-0.676v-0.949L54.154,63.985z"/>
		<path fill="#4D4D4D" d="M62.792,63.142c0,0-0.303,0.441-0.934,1.057c-0.584,0.572-0.758,0.795-1.275,1.477
			c-0.117,0.156-0.187,0.598,0.418,0.576c0.53-0.021,1.34-0.248,2.012-0.486c0.77-0.275,1.418-1.049,1.864-1.33
			c0.447-0.285,0.645-0.91,0.645-0.91l-0.31-0.936L62.792,63.142z"/>
		<path fill="#0E6989" d="M62.552,47.72c0.224-3.49-1.7-5.322-1.7-5.322c0.154-1.176-5.298,0.47-5.298,0.47s-1.167,6.32-1.661,9.646
			c-0.562,3.782-0.222,11.485-0.222,11.485s0.07,0.82,1.479,0.814c1.081-0.002,1.879-0.949,1.879-0.949l0.111-8.766l1.251-6.218
			c0,0,1.206,5.052,1.587,6.866c0.408,1.928,1.968,7.635,1.968,7.635s1.007,1.158,2.26,0.533c1.253-0.627,1.006-1.326,1.006-1.326
			s-0.244-4.045-1.855-7.67C63.223,52.17,62.449,49.322,62.552,47.72z"/>
		<path fill="#DD1D35" d="M56.299,33.709c0,0-0.779-0.038-1.584,1.474c-0.807,1.513-1.574,3.123-1.574,3.123
			s1.172,0.167,2.447,1.341C57.33,38.071,57.615,34.446,56.299,33.709z"/>
		<path fill="#FC2E3D" d="M56.299,33.709c0,0-0.438,0.841-0.841,2.383c-0.403,1.544-0.259,8.716-0.259,8.716
			s1.662,1.175,4.446,0.945c1.654-0.137,2.499-1.162,2.499-1.162s0.988-7.024,0.854-8.03c-0.134-1.007-2.239-3.37-2.239-3.37
			S57.976,33.05,56.299,33.709z"/>
		<path fill="#FFAD97" d="M58.204,32.728l-0.324,1.885c0,0,0.96,1.077,1.899,0.273c0.939-0.806,1.072-1.177,1.072-1.177L60.39,31.14
			L58.204,32.728z"/>
		<g>
			<path fill="#0E6989" d="M58.617,38.065c0,0,1.211-1.824,2.171-2.336s1.477-0.607,1.477-0.607s-0.35-0.72-0.584-0.804
				c-0.405,0.06-0.669,0.172-1.532,0.62c-0.862,0.448-1.809,1.533-2.186,2.199C57.202,38.479,58.059,38.84,58.617,38.065z"/>
			<path fill="#0E6989" d="M56.671,33.546c0,0-0.791,1.884-0.885,2.789c-0.097,0.907,0.085,1.185,0.447,1.217
				c0.365,0.031,0.385-0.614,0.492-1.334c0.102-0.682,0.769-2.917,0.769-2.917L56.671,33.546z"/>
			<path fill="#0E6989" d="M62.28,43.6c0,0-0.885,0.7-1.761,0.602c-0.768-0.084-1.874-0.831-1.815-3.261s0.283-3.55,0.283-3.55
				l-2.936-1.285c0,0-0.799,1.844-0.956,5.465c-0.156,3.623-0.224,4.869-0.224,4.869s3.133,0.193,4.987,0
				c1.854-0.191,2.63-0.42,2.63-0.42L62.28,43.6z"/>
			<ellipse fill="#FFFFFF" cx="56.189" cy="36.77" rx="0.187" ry="0.27"/>
			
				<ellipse transform="matrix(-0.8143 -0.5805 0.5805 -0.8143 83.8606 102.2305)" fill="#FFFFFF" cx="58.285" cy="37.699" rx="0.186" ry="0.27"/>
			<path fill="#1A8AA8" d="M55.799,37.943c-0.12,0.609-0.06,2.519,1.022,2.806c0.983,0.261,1.237-0.896,1.465-1.791
				C57.013,38.671,55.799,37.943,55.799,37.943z"/>
		</g>
		<path fill="#FFC5B3" d="M59.529,28.313c-0.804-0.61-2.702-0.807-3.395,1.155c-0.728,2.059,1.134,4.63,2.127,4.193
			c0.556-0.246,1.724-1.114,2.053-2.197C60.688,30.244,60.152,28.788,59.529,28.313z"/>
		<g>
			<polygon fill="#DBA763" points="51.863,50.716 51.863,43.25 57.88,40.252 57.88,47.293 			"/>
			<polygon fill="#E8B679" points="51.863,50.716 51.863,43.25 45.848,40.252 45.848,47.293 			"/>
			<polygon fill="#DBA763" points="51.865,50.781 51.863,43.25 57.88,39.773 57.88,47.293 			"/>
			<polygon fill="#E8B679" points="51.865,50.781 51.863,43.25 45.848,39.773 45.848,47.293 			"/>
			<polygon fill="#FFE1C0" points="45.848,39.773 51.863,43.25 57.88,39.773 51.865,36.296 			"/>
			<g>
				<polygon fill="#4D4D4D" points="55.645,43.255 54.303,44.036 54.303,41.837 55.645,41.057 				"/>
				<polygon fill="#6D6D6D" points="55.645,41.057 49.637,37.584 48.292,38.361 54.303,41.84 				"/>
				<polygon fill="#4D4D4D" points="52.661,49.703 52.661,49.316 54.682,48.145 54.682,48.537 				"/>
				<polygon fill="#4D4D4D" points="52.661,49.011 52.661,48.624 54.682,47.451 54.682,47.845 				"/>
				<polygon fill="#4D4D4D" points="56.493,46.192 56.493,47.534 57.46,46.975 57.46,45.631 				"/>
				<polygon fill="#4D4D4D" points="47.172,46.051 47.172,47.45 46.205,46.893 46.205,45.493 				"/>
				<polygon fill="#4D4D4D" points="48.491,46.816 48.491,48.214 47.524,47.657 47.524,46.257 				"/>
				<polygon fill="#FFFFFF" points="48.19,41.96 48.19,43.973 46.205,42.824 46.205,40.811 				"/>
				<polygon fill="#4D4D4D" points="47.947,42.373 47.947,42.044 46.386,41.144 46.386,41.466 				"/>
			</g>
		</g>
		<path fill="#FFC5B3" d="M59.366,40.207c0,0-1.139,2.395-1.611,3.063c-0.471,0.668-2.388,2.193-2.781,2.417
			c-0.395,0.219-1.298,0.501-1.769,0.457c-0.473-0.045-0.789,0.186-0.335,0.358c0.454,0.171,0.895,0.212,0.895,0.212
			s-0.827,0.612-1.156,1.134c-0.265,0.421-0.488,1.191,0.532,0.968c0.821-0.18,1.966-1.442,2.266-1.724
			c0.563-0.531,2.813-1.746,3.319-2.105c0.719-0.509,2.753-3.506,2.753-3.506S60.852,39.892,59.366,40.207z"/>
		<path fill="#DD1D35" d="M62.64,35.695c-0.593-0.477-1.855,1.134-2.524,2.141c-0.671,1.005-1.208,2.512-1.208,2.512
			s0.806,0.587,1.529,1.043c0.607,0.38,1.249,0.671,1.249,0.671S64.665,37.328,62.64,35.695z"/>
		<path fill="#4D4D4D" d="M55.969,30.123c0.331,0.337,0.815,0.711,1.81,0.547c0.814-0.134,1.396-0.514,1.396-0.514l0.168,1.09
			c0,0,0.161-0.03,0.285-0.106c0.018-0.432,0.172-0.564,0.409-0.437c0.266,0.145,0.277,0.761,0.277,0.761s0.813-0.783,0.537-2.013
			c-0.17-0.767-1.205-2.28-2.647-2.146c-1.445,0.134-2.282,1.088-2.463,1.914C55.652,29.633,55.819,29.97,55.969,30.123z"/>
		<g>
			<path fill="#0E6989" d="M55.679,29.177c0,0-1.854,1.305-2.174,1.581c-0.321,0.276,1.465,1.481,2.729,1.079
				c1.266-0.404,3.167-1.809,3.167-1.809L55.679,29.177z"/>
			<path fill="#075277" d="M55.679,29.177c0,0,2.112,1.314,3.432,0.936c1.319-0.376,1.678-0.703,1.678-0.703
				s-0.113-2.758-2.54-2.758C55.825,26.652,55.679,29.177,55.679,29.177z"/>
			<ellipse fill="#0E6989" cx="57.994" cy="26.741" rx="0.364" ry="0.201"/>
		</g>
	</g>
	<g display="inline">
		<g>
			<path fill="#FFC5B3" d="M37.264,71.724c0.703-0.35,1.371-0.781,1.158-1.184c-0.096-0.182-0.32-0.26-0.537-0.297
				c-0.649,0.213-0.972,0.359-0.972,0.359s0.067-3.766,0.345-5.326c0.091-0.516-2.369-0.535-2.369-0.535
				c-0.088,0.361-0.165,3.527,0,5.455c0.057,0.643,0.02,1.066-0.027,1.379c0.168,0.074,0.513,0.223,0.771,0.34
				C35.985,72.075,36.56,72.075,37.264,71.724z"/>
			<path fill="#4D4D4D" d="M34.834,72.601c0.234,0.559,0.778,0.508,1.873,0.111c0.973-0.348,1.775-0.744,2.466-1.254
				c0.691-0.514,0.698-0.582,0.79-0.93c0.128-0.484-0.579-0.754-1.755-0.389c-0.117,0.035-0.223,0.07-0.324,0.104
				c0.217,0.037,0.441,0.115,0.537,0.297c0.213,0.402-0.455,0.834-1.158,1.184c-0.705,0.352-1.279,0.352-1.631,0.191
				c-0.257-0.117-0.603-0.266-0.771-0.34C34.792,72.046,34.693,72.263,34.834,72.601z"/>
		</g>
		<g>
			<path fill="#FFC5B3" d="M40.685,73.71c0.704-0.352,1.372-0.781,1.158-1.186c-0.097-0.18-0.32-0.26-0.537-0.297
				c-0.648,0.213-0.972,0.359-0.972,0.359s0.18-5.91,0.458-7.469c0.091-0.514-2.376,0.256-2.376,0.256
				c-0.088,0.363-0.27,4.879-0.104,6.807c0.056,0.646,0.021,1.068-0.027,1.381c0.168,0.072,0.513,0.221,0.771,0.34
				C39.407,74.06,39.982,74.06,40.685,73.71z"/>
			<path fill="#4D4D4D" d="M38.255,74.585c0.235,0.561,0.777,0.508,1.873,0.115c0.973-0.352,1.774-0.748,2.466-1.26
				c0.691-0.51,0.698-0.58,0.79-0.924c0.128-0.486-0.579-0.758-1.755-0.393c-0.116,0.037-0.223,0.072-0.323,0.104
				c0.216,0.037,0.44,0.117,0.537,0.297c0.214,0.404-0.454,0.834-1.158,1.186c-0.703,0.35-1.278,0.35-1.63,0.191
				c-0.257-0.119-0.603-0.268-0.771-0.34C38.212,74.032,38.114,74.249,38.255,74.585z"/>
		</g>
		<path fill="#FFC5B3" d="M38.112,33.588c0.29,0.201,1.375,0.451,1.678,2.841c0.269,2.117-0.197,2.668-0.627,2.848
			c-0.237,0.1-1.083,0.095-1.083,0.095l0.032,1.789c0,0-1.048,0.416-2.055,0c-1.005-0.414-1.005-0.414-1.005-0.414
			s0.393-0.677,0.328-1.85c-0.082-1.454-0.597-3.525-0.232-4.295C35.805,33.211,37.323,33.041,38.112,33.588z"/>
		<path fill="#FF9003" d="M34.516,39.628c0,0,2.863,0.825,3.595,1.071c0.69,0.236,1.243,0.709,1.963,2.156
			c0.721,1.448,0.189,3.643,0.189,3.643l-0.217,3.954c0,0-1.497,1.815-2.831,1.94c-1.82,0.177-2.019-0.82-2.019-0.82
			s-2.315-5.074-1.938-7.494C33.602,41.879,34.516,39.628,34.516,39.628z"/>
		<path fill="#4D4D4D" d="M39.868,35.608c-0.078,0.821-0.75,1.066-1.351,1.693c-0.6,0.627-0.66,1.468-0.842,2.026
			c-0.182,0.558,0.071,3.052-0.842,4.933c-0.974,2.005-2.222,2.438-2.222,2.438s-1.737-2.67-2.355-5.909
			c-0.619-3.24,1.614-7.453,4.025-7.963C38.84,32.286,40.025,33.925,39.868,35.608z"/>
		<path fill="#FFC5B3" d="M39.416,42.032c-0.592-0.056-1.207,1.021-1.146,2.366c0.077,1.722,3.667,4.658,3.667,4.658
			c1.208,0.714,4.873-0.347,5.746-0.449c0.875-0.102,1.895,0.188,2.439,0.053c0.518-0.129,1.246-0.994,0.896-1.272
			c-0.284-0.222-1.932-0.227-1.932-0.227s0.3-0.69,0.306-0.902c0.023-0.816-0.377,0.094-0.895,0.512
			c-0.577,0.466-0.931,0.474-1.431,0.547c-2.234,0.33-4.335-0.157-4.335-0.157S40.55,42.14,39.416,42.032z"/>
		<path fill="#FF9003" d="M36.545,32.777c0,0,2.326,0.195,2.146,2.209c-0.181,2.014-0.174,2.315-0.174,2.315s0.434-1.2,0.646-2.118
			C39.375,34.267,39.089,32.16,36.545,32.777z"/>
		<path fill="#FFC5B3" d="M39.163,36.784c0,0-0.628-1.077-0.898,0c-0.251,0.999,0.62,1.334,0.62,1.334L39.163,36.784z"/>
		<path fill="#FF9003" d="M35.018,49.61c0,0-0.807,2.388-1.052,3.805c-0.613,3.535-0.412,11.326-0.412,11.326
			s3.19,1.822,5.391,1.674c3.21-0.215,4.17-1.674,4.17-1.674s-1.3-7.535-1.519-9.139c-0.433-3.175-1.802-6.206-1.802-6.206
			L35.018,49.61z"/>
		<path fill="#E57700" d="M34.53,51.162c0,0,2.15,0.748,3.689,0.229c1.54-0.518,2.041-0.843,2.041-0.843l-0.189-0.886
			c0,0-1.042,0.481-2.658,0.718c-1.486,0.216-2.873-0.395-2.873-0.395L34.53,51.162z"/>
	</g>
</g>
<g>
	<g>
		<g>
			<g>
				<path fill="#03041F" d="M43.682,37.371c-1.004-1.506-3.109-1.771-4.455-0.563c-1.116,1.003-1.31,2.681-0.451,3.91l2.752,3.938
					l4.674-3.504L43.682,37.371z"/>
				<path fill="#03041F" d="M62.047,44.467l-1.203-1.521c-0.295-0.326-0.77-0.426-1.166-0.238l-3.307,1.537l0,0l-8.855-1.171
					l-1.312-1.921l-4.159,3.117l1.68,2.242c0.514,0.688,1.305,1.032,2.097,1.012c0.008,0,0.016,0.003,0.024,0.003l10.112-0.413l0,0
					c1.133,0.413,1.992-0.009,1.992-0.009l1.76-0.618l0.404,0.391c0.266,0.252,0.668,0.288,0.971,0.085l0.563-0.375
					c0.182-0.121,0.322-0.29,0.408-0.492l0.188-0.441C62.414,45.255,62.338,44.791,62.047,44.467z"/>
			</g>
			<path fill="#03041F" d="M52.256,71.26l0.008,0.664l11.061-0.125l-0.006-0.662L62.9,71.145c0-0.004,0-1.703-2.096-1.984
				c-2.1-0.285-2.582-0.143-3.061-0.77c-0.271-0.35-0.346-0.832-0.361-1.154c-0.008-0.195-0.17-0.348-0.361-0.346h-0.057
				l0.006-1.654h1.125h0.75v-2.254h-0.75v-9.447l0,0v-0.057h-0.004c-0.033-1.756-1.463-3.17-3.225-3.17H39.591
				c0,0-2.266,6.455,3.922,6.455h8.262v6.219h-0.635v2.254h0.635h1.072l0.064,1.707c-0.186,0.016-0.328,0.168-0.328,0.357
				l0.047,3.955"/>
		</g>
		<g>
			<g>
				<g>
					<g>
						<path fill="#7AABDD" d="M61.08,37.573v2.859c0,0,0.605-0.094,0.605-1.588C61.686,37.349,61.08,37.573,61.08,37.573z"/>
						<path fill="#7AABDD" d="M63.234,43.085l-0.496-3.493c-0.027-0.202-0.189-0.355-0.395-0.375l-0.971-0.087l0.021-0.268
							l0.975,0.087c0.328,0.03,0.592,0.278,0.639,0.604l0.496,3.493L63.234,43.085z"/>
					</g>
					<g>
						<path fill="none" stroke="#FAFAFA" stroke-width="1.5321" stroke-miterlimit="10" d="M63.713,44.29l-1.637-5.874
							c-0.145-0.504-0.602-0.852-1.125-0.852h-0.902"/>
						<ellipse fill="#FAFAFA" cx="59.691" cy="37.424" rx="0.711" ry="2.121"/>
					</g>
				</g>
				<g>
					<circle fill="#FAFAFA" cx="64.657" cy="45.359" r="2.253"/>
					<path fill="#205FB8" d="M64.492,48.215h-2.148c-0.443,0-0.811-0.361-0.811-0.807v-4.1c0-0.445,0.367-0.806,0.811-0.806h2.148
						c0.447,0,0.805,0.361,0.805,0.806v4.1C65.297,47.854,64.939,48.215,64.492,48.215z"/>
				</g>
			</g>
			<g>
				<rect x="15.645" y="68.275" fill="#03041F" width="3.214" height="2.205"/>
				<g>
					<g>
						<path fill="#03041F" d="M64.273,74.08c0,4.924,3.992,8.922,8.92,8.922c4.932,0,8.924-3.998,8.924-8.922
							c0-4.926-3.992-8.922-8.924-8.922C68.266,65.158,64.273,69.154,64.273,74.08z"/>
						<path fill="#7AABDD" d="M67.52,74.08c0,3.135,2.541,5.676,5.674,5.676c3.139,0,5.676-2.541,5.676-5.676
							c0-3.131-2.537-5.676-5.676-5.676C70.061,68.404,67.52,70.949,67.52,74.08z"/>
						<path fill="#FFFFFF" d="M71.543,74.08c0,0.914,0.74,1.652,1.65,1.652c0.916,0,1.654-0.738,1.654-1.652
							s-0.738-1.652-1.654-1.652C72.283,72.428,71.543,73.166,71.543,74.08z"/>
					</g>
					<g>
						<path fill="#1A549B" d="M73.221,61.699c6.453,0,11.682,5.23,11.682,11.684H61.533C61.533,66.93,66.766,61.699,73.221,61.699z"
							/>
					</g>
				</g>
				<g>
					<g>
						<g>
							<g>
								<rect x="16.126" y="43.78" fill="#F4BB54" width="11.725" height="3.292"/>
								<g>
									<rect x="14.933" y="47.026" fill="#FBB03B" width="14.112" height="10.355"/>
								</g>
							</g>
							
								<line fill="none" stroke="#03041F" stroke-width="1.1344" stroke-miterlimit="10" x1="21.174" y1="43.78" x2="20.677" y2="57.68"/>
							
								<line fill="none" stroke="#03041F" stroke-width="1.1344" stroke-miterlimit="10" x1="22.248" y1="43.78" x2="22.746" y2="57.68"/>
						</g>
						<g>
							
								<line fill="none" stroke="#03041F" stroke-width="3.4182" stroke-miterlimit="10" x1="12.849" y1="57.68" x2="30.747" y2="57.68"/>
							
								<line fill="none" stroke="#03041F" stroke-width="3.4182" stroke-miterlimit="10" x1="18.864" y1="57.68" x2="22.847" y2="60.598"/>
						</g>
					</g>
					<path fill="#205FB8" d="M62.404,43.402l-4.578,2.632l4.053,9.14c0,0,2.777,4.934,0.977,9.256
						c-2.041,4.873-4.381,7.416-4.381,7.416h-9.101c-1.856,0-3.589-0.922-4.626-2.465c-1.085-1.604-2.025-3.811-1.262-6.082
						c1.361-4.047,5.353-5.9,5.353-5.9H26.883c0,0-3.834,1.135-9.502,10.877h2.531l16.439,5.107h21.917c0,0,2.527,0.852,6.006-4.736
						l5.635-5.348l0,0c0-2.627-0.836-5.188-2.389-7.311l-5.115-6.998V43.402z"/>
					<path fill="#03041F" d="M45.412,57.814c0.459,0,0.898,0.178,1.228,0.496c0.779,0.76,2.371,2.01,3.537,0.963
						c1.603-1.43,0.17-3.834-2.276-3.623c-2.447,0.213-10.459,0.252-13.41-1.35c-2.952-1.602-4.09-1.688-5.017-0.676
						c-0.929,1.012,0.547,3.826,3.287,4.189H45.412z"/>
				</g>
				<g>
					<g>
						<path fill="#03041F" d="M20.051,74.08c0,4.924,3.994,8.922,8.922,8.922c4.927,0,8.921-3.998,8.921-8.922
							c0-4.926-3.994-8.922-8.921-8.922C24.044,65.158,20.051,69.154,20.051,74.08z"/>
						<path fill="#7AABDD" d="M23.298,74.08c0,3.135,2.54,5.676,5.675,5.676c3.134,0,5.674-2.541,5.674-5.676
							c0-3.131-2.54-5.676-5.674-5.676C25.838,68.404,23.298,70.949,23.298,74.08z"/>
						<circle fill="#FFFFFF" cx="28.972" cy="74.08" r="1.653"/>
					</g>
					<g>
						<path fill="#1A549B" d="M16.73,72.254c0,0,1.302-8.453,10.642-12.074c9.338-3.617,12.894,1.5,13.393,2.463
							c0.827,1.596,1.941,6.41-1.165,9.611H16.73z"/>
						<g>
							<path fill="#0F467F" d="M23.601,69.631h10.366c0.19,0,0.343-0.154,0.343-0.342l0,0c0-0.189-0.153-0.342-0.343-0.342H23.601
								c-0.19,0-0.343,0.152-0.343,0.342l0,0C23.258,69.477,23.411,69.631,23.601,69.631z"/>
							<path fill="#0F467F" d="M24.759,67.982h8.297c0.189,0,0.343-0.152,0.343-0.34l0,0c0-0.189-0.154-0.346-0.343-0.346h-8.297
								c-0.19,0-0.343,0.156-0.343,0.346l0,0C24.416,67.83,24.568,67.982,24.759,67.982z"/>
							<path fill="#0F467F" d="M25.921,66.367h5.943c0.19,0,0.343-0.152,0.343-0.344l0,0c0-0.189-0.153-0.342-0.343-0.342h-5.943
								c-0.19,0-0.342,0.152-0.342,0.342l0,0C25.579,66.215,25.73,66.367,25.921,66.367z"/>
						</g>
					</g>
				</g>
			</g>
		</g>
		<g>
			<g>
				<polygon fill="#E99395" points="44.28,30.822 42.178,36.334 38.472,35.435 41.078,30.318 				"/>
				<path fill="#D17A80" d="M41.631,30.14c0,0-0.213,2.567,1.161,4.584l0.676-1.799L41.631,30.14z"/>
				<path fill="#E99395" d="M46.005,27.934l0.364,3.672c0.09,0.907-0.572,1.714-1.479,1.805l0,0
					c-1.303,0.129-2.534-0.648-3.037-1.857l-1.184-2.792c-0.264-0.631,0.158-1.335,0.837-1.403l2.925-0.613
					C44.992,26.691,45.951,27.375,46.005,27.934z"/>
				<path fill="#E99395" d="M46.11,29.576l0.752,0.915c0.091,0.154-0.069,0.336-0.288,0.324l-1.106,0.206L46.11,29.576z"/>
				<path fill="#03041F" d="M41.943,28.039c0,0,1.103,0.402,0.727,1.29c-0.316,0.744-0.097,2.077,0.88,1.785
					c0.976-0.292,1.995-0.557,2.747-0.248l0.232,1c0.194,0.832-0.307,1.676-1.134,1.884c-0.015,0.003-0.03,0.007-0.044,0.011
					c-1.492,0.356-3.854-0.297-3.816-2.929l-0.276-2.422L41.943,28.039z"/>
				<path fill="#03041F" d="M41.112,26.702c-0.251,0.043-2.274-0.025-2.292,2.228c-0.011,1.433,1.186,3.032,1.195,3.017
					c0,0,0.74-0.045,0.945-1.098c0.053-0.27,0.011-0.458-0.081-0.592l1.574-2.028c0,0-0.44-0.33,0.245-0.733
					c1.223-0.718,2.625-0.435,2.625-0.435C44.934,25.758,41.361,26.66,41.112,26.702z"/>
				<g>
					<path fill="#E99395" d="M39.727,29.844c-0.341,0.898,0.456,1.672,1.279,1.413c0.384-0.122,0.663-0.46,0.705-0.86
						c0.094-0.857-0.823-1.487-1.636-0.977C39.917,29.519,39.793,29.67,39.727,29.844z"/>
					
						<path fill="none" stroke="#03041F" stroke-width="1.0231" stroke-linecap="round" stroke-linejoin="round" stroke-miterlimit="10" d="
						M40.857,29.827c0,0-0.732,0.1-0.365,0.834"/>
				</g>
				<g>
					<path fill="#03041F" d="M45.708,26.97l3.933-0.583c0.064-0.006,0.201,0.024,0.232,0.165c0.048,0.204-0.098,0.27-0.152,0.281
						l-3.667,0.726c-0.155,0.029-0.303-0.067-0.333-0.217c-0.029-0.15-0.171-0.234-0.015-0.264
						C45.713,27.078,45.7,26.971,45.708,26.97z"/>
					<path fill="#3488D1" d="M38.634,29.128l7.551-1.592c0,0-0.756-3.513-4.596-2.696C37.782,25.651,38.634,29.128,38.634,29.128z"
						/>
				</g>
				<g>
					<circle cx="45.498" cy="29.611" r="0.219"/>
					<path fill="#03041F" d="M45.667,28.573c0.058,0.191-0.246,0.259-0.604,0.345c-0.358,0.085-0.659,0.132-0.693-0.033
						c-0.03-0.146,0.246-0.259,0.603-0.344C45.33,28.456,45.616,28.413,45.667,28.573z"/>
					
						<path fill="none" stroke="#FFFFFF" stroke-width="0.7712" stroke-linecap="round" stroke-linejoin="round" stroke-miterlimit="10" d="
						M44.993,31.275c0,0,0.206,0.396,1.042,0.173"/>
				</g>
			</g>
			<g>
				<path fill="#D80000" d="M40.411,34.746c0,0-1.869-0.537-2.991,1.38c-1.328,2.269-1.009,5.872,0.078,8.786l0.463,5.416h8.932
					c0,0,0.401-5.97-1.32-9.79C43.304,35.501,40.411,34.746,40.411,34.746z"/>
				<g>
					<g>
						<path fill="#E99395" d="M45.749,42.232l1.645,2.41c0.738,1.08,0.534,2.542-0.471,3.378l0,0
							c-1.116,0.929-2.78,0.733-3.651-0.428l-1.68-2.242L45.749,42.232z"/>
						<g>
							<path fill="#D80000" d="M45.72,42.232l-2.52-3.78c-1.003-1.506-3.109-1.772-4.455-0.563l0,0
								c-1.116,1.002-1.31,2.679-0.45,3.91l2.752,3.937L45.72,42.232z"/>
							<line fill="#D80000" x1="45.749" y1="42.232" x2="43.468" y2="38.849"/>
							<polyline fill="#D80000" points="41.592,45.351 41.047,45.737 37.894,40.981 							"/>
						</g>
					</g>
					<path fill="#E99395" d="M45.678,43.972l10.24,1.354l-0.416,2.87l-10.109,0.411c-1.695-0.239-2.892-1.569-2.334-3.188l0,0
						C43.488,44.171,44.375,43.767,45.678,43.972z"/>
					<g>
						<path fill="#E99395" d="M55.154,45.68l4.068-1.892c0.398-0.185,0.873-0.088,1.168,0.239l1.203,1.52
							c0.289,0.326,0.365,0.788,0.195,1.188L61.6,47.177c-0.086,0.2-0.225,0.373-0.408,0.493l-0.557,0.374
							c-0.305,0.203-0.709,0.169-0.973-0.086l-0.406-0.389l-1.762,0.618c0,0-1.314,0.643-2.838-0.442L55.154,45.68z"/>
						<path fill="#03041F" d="M58.186,46.309l-0.873,0.528c-0.514,0.449-0.529,1.248-0.029,1.718l0,0
							c0.471,0.441,1.207,0.413,1.645-0.062l0.805-0.592c0.422-0.455,0.387-1.165-0.07-1.579l0,0
							C59.244,45.944,58.609,45.938,58.186,46.309z"/>
					</g>
				</g>
			</g>
			<g>
				<g>
					<g>
						<g>
							<polygon fill="#FFFFFF" points="51.146,63.391 55.348,63.721 55.332,67.695 51.311,67.75 							"/>
						</g>
						<g>
							<path fill="#03041F" d="M50.956,67.301L51,71.256l10.271-0.111c0,0,0-1.699-2.094-1.984c-2.104-0.285-2.584-0.143-3.064-0.77
								c-0.273-0.35-0.346-0.832-0.359-1.154c-0.01-0.195-0.168-0.348-0.363-0.346l-4.08,0.049
								C51.111,66.939,50.953,67.105,50.956,67.301z"/>
							
								<rect x="50.629" y="71.199" transform="matrix(-0.9999 0.0113 -0.0113 -0.9999 113.1264 142.4214)" fill="#03041F" width="11.064" height="0.662"/>
							<g>
								<path fill="#DBDADB" d="M55.148,68.172c0,0.086,0.068,0.156,0.154,0.156c0.088-0.004,0.158-0.072,0.154-0.16
									c0-0.086-0.07-0.152-0.156-0.152C55.213,68.016,55.145,68.086,55.148,68.172z"/>
								<path fill="#DBDADB" d="M55.633,68.855c0,0.088,0.072,0.16,0.158,0.156c0.082,0,0.152-0.07,0.152-0.156
									c-0.004-0.086-0.074-0.156-0.16-0.156C55.701,68.699,55.633,68.771,55.633,68.855z"/>
								<path fill="#DBDADB" d="M56.529,69.273c0.004,0.086,0.074,0.156,0.16,0.152c0.086,0,0.156-0.07,0.152-0.156
									c0-0.086-0.068-0.156-0.156-0.156C56.6,69.117,56.529,69.188,56.529,69.273z"/>
								<path fill="#DBDADB" d="M57.578,69.416c0,0.09,0.07,0.154,0.156,0.154s0.156-0.07,0.156-0.158
									c-0.004-0.086-0.074-0.154-0.16-0.152C57.645,69.26,57.574,69.33,57.578,69.416z"/>
							</g>
							
								<line fill="none" stroke="#FFFFFF" stroke-width="0.6077" stroke-miterlimit="10" x1="51" y1="71.256" x2="61.271" y2="71.145"/>
						</g>
					</g>
					<g>
						<rect x="50.146" y="53.479" fill="#54578A" width="6.317" height="11.758"/>
						<rect x="49.51" y="62.982" fill="#606699" width="7.703" height="2.254"/>
					</g>
				</g>
				<g>
					<path fill="#54578A" d="M37.961,50.309c0,0-2.267,6.455,3.921,6.455h11.356c1.781,0,3.225-1.445,3.225-3.229l0,0
						c0-1.781-1.443-3.227-3.225-3.227H37.961z"/>
					
						<line fill="none" stroke="#03041F" stroke-width="1.0747" stroke-miterlimit="10" x1="50.146" y1="56.895" x2="52.203" y2="56.895"/>
				</g>
			</g>
		</g>
	</g>
	
		<line fill="none" stroke="#FFFFFF" stroke-width="1.0747" stroke-miterlimit="10" x1="0.316" y1="83.002" x2="99.994" y2="83.002"/>
</g>
<g>
	<g>
		<g>
			<rect x="35.986" y="61.199" fill="#D80000" width="1.744" height="1.527"/>
			<rect x="33.89" y="59.299" fill="#D80000" width="1.515" height="1.328"/>
			<rect x="36.226" y="59.412" fill="#D80000" width="1.262" height="1.105"/>
			<rect x="37.068" y="58.07" fill="#D80000" width="0.843" height="0.74"/>
			<rect x="38.689" y="58.184" fill="#D80000" width="0.59" height="0.518"/>
			<rect x="38.143" y="59.594" fill="#D80000" width="0.842" height="0.74"/>
			<g>
				<path fill="#D80000" d="M29.873,59.098c1.122,0,2.167,0.316,3.059,0.859v6.746c0,0-0.129,1.021-1.231,1.021
					c-0.936,0-1.08-0.645-1.102-0.953v-3.555c0-0.715-0.492-2.373-2.681-2.373c-2.533,0-2.857,1.936-2.857,2.615v3.471h-0.737
					c-0.213-0.611-0.332-1.268-0.332-1.951C23.992,61.732,26.625,59.098,29.873,59.098"/>
				<path d="M27.917,62.563c0.936,0,1.078,0.641,1.1,0.955v3.553c-0.022,0.637,0.492,2.318,2.683,2.318
					c2.529,0,2.855-1.881,2.855-2.564v-3.465h0.97c0.148,0.516,0.228,1.059,0.228,1.619c0,3.25-2.632,5.883-5.88,5.883
					c-1.174,0-2.27-0.344-3.188-0.941v-6.338C26.685,63.582,26.814,62.563,27.917,62.563"/>
			</g>
		</g>
	</g>
</g>
<g>
	<path fill="#D80000" d="M35.592,21.953c0-7.513-6.089-13.604-13.603-13.604c-7.513,0-13.604,6.091-13.604,13.604
		c0,2.51,0.691,4.854,1.878,6.872h-0.006l0.038,0.052c0.521,0.879,1.135,1.694,1.835,2.43l9.859,13.061l9.85-13.048
		c0.706-0.742,1.328-1.567,1.854-2.457l0.028-0.037h-0.006C34.9,26.808,35.592,24.463,35.592,21.953z M21.989,27.876
		c-3.307,0-5.986-2.68-5.986-5.986s2.679-5.987,5.986-5.987c3.306,0,5.988,2.68,5.988,5.987S25.295,27.876,21.989,27.876z"/>
</g>
</svg>
